G04 Layer_Color=2752767*
%FSLAX44Y44*%
%MOMM*%
G71*
G01*
G75*
%ADD18C,0.1000*%
%ADD19C,0.2540*%
%ADD20C,0.0500*%
%ADD37C,0.0508*%
%ADD38C,0.0677*%
D18*
X81000Y88001D02*
Y92001D01*
X79000Y90001D02*
X83000D01*
X159750Y88000D02*
Y92000D01*
X157750Y90000D02*
X161750D01*
X191750Y88000D02*
Y92000D01*
X189750Y90000D02*
X193750D01*
X224000Y88000D02*
Y92000D01*
X222000Y90000D02*
X226000D01*
X134750Y80001D02*
Y100001D01*
X114750Y80001D02*
X134750D01*
X114750D02*
Y100001D01*
X134750D01*
X122250Y90001D02*
X127250D01*
X124750Y87500D02*
Y92501D01*
D19*
X20250Y148000D02*
X445000D01*
X445250Y52250D02*
Y116250D01*
X445000Y20000D02*
X445250Y20250D01*
X20500Y19750D02*
X445000D01*
X20250Y20000D02*
X20500Y19750D01*
X20250Y20000D02*
Y148000D01*
X445250Y20250D02*
Y52250D01*
Y116250D02*
Y148250D01*
D20*
X139000Y75750D02*
Y104251D01*
X110500Y75750D02*
X139000D01*
X110500D02*
Y104251D01*
X139000D01*
D37*
X327968Y87968D02*
Y92032D01*
X332032D01*
Y87968D01*
X327968D01*
X37968D02*
Y92032D01*
X42032D01*
Y87968D01*
X37968D01*
X83312Y117856D02*
X81280Y121920D01*
X85344D01*
X83312Y117856D01*
X113030Y116840D02*
X110998Y120904D01*
X115062D01*
X113030Y116840D01*
X353748Y54028D02*
X351716Y58092D01*
X355780D01*
X353748Y54028D01*
X95250Y56811D02*
X93218Y60875D01*
X97282D01*
X95250Y56811D01*
X283210Y37592D02*
X281178Y41656D01*
X285242D01*
X283210Y37592D01*
X122851Y45127D02*
X120819Y49191D01*
X124883D01*
X122851Y45127D01*
X157250Y46968D02*
X155218Y51032D01*
X159282D01*
X157250Y46968D01*
X64000Y29468D02*
X61968Y33532D01*
X66032D01*
X64000Y29468D01*
X254000Y68968D02*
X251968Y73032D01*
X256032D01*
X254000Y68968D01*
X133250Y57218D02*
X131218Y61282D01*
X135282D01*
X133250Y57218D01*
D38*
X429532Y113900D02*
G03*
X429532Y113900I-2032J0D01*
G01*
Y88500D02*
G03*
X429532Y88500I-2032J0D01*
G01*
Y63100D02*
G03*
X429532Y63100I-2032J0D01*
G01*
X402032Y113900D02*
G03*
X402032Y113900I-2032J0D01*
G01*
Y88500D02*
G03*
X402032Y88500I-2032J0D01*
G01*
Y63100D02*
G03*
X402032Y63100I-2032J0D01*
G01*
M02*
