G04 Layer_Physical_Order=1*
G04 Layer_Color=255*
%FSLAX44Y44*%
%MOMM*%
G71*
G01*
G75*
%ADD10R,0.5500X0.5500*%
%ADD11R,2.6000X1.5000*%
%ADD12R,0.8500X0.8500*%
%ADD13R,0.5500X0.5500*%
%ADD14R,0.9000X0.2500*%
%ADD15R,0.2500X0.9000*%
%ADD16C,0.2000*%
%ADD17C,0.1250*%
%ADD18C,0.1000*%
%ADD19C,0.2540*%
%ADD20C,0.0500*%
%ADD21C,1.5240*%
%ADD22C,1.5000*%
%ADD23R,1.5000X1.5000*%
%ADD24C,1.2700*%
D10*
X321250Y139843D02*
D03*
Y128159D02*
D03*
X364500Y42842D02*
D03*
Y31158D02*
D03*
X224251Y47343D02*
D03*
Y35659D02*
D03*
X112500Y47159D02*
D03*
Y58843D02*
D03*
X364500Y139843D02*
D03*
Y128159D02*
D03*
D11*
X81000Y75001D02*
D03*
Y105001D02*
D03*
X159750Y75000D02*
D03*
Y105000D02*
D03*
X191750Y75000D02*
D03*
Y105000D02*
D03*
X224000Y75000D02*
D03*
Y105000D02*
D03*
D12*
X81000Y35751D02*
D03*
Y51250D02*
D03*
X175500Y34000D02*
D03*
Y49500D02*
D03*
X304500Y45750D02*
D03*
Y30250D02*
D03*
D13*
X290592Y89000D02*
D03*
X278908D02*
D03*
X290343Y63251D02*
D03*
X278659D02*
D03*
X290342Y114251D02*
D03*
X278658D02*
D03*
D14*
X116000Y97500D02*
D03*
Y92501D02*
D03*
Y87500D02*
D03*
Y82501D02*
D03*
X133500D02*
D03*
Y87500D02*
D03*
Y92501D02*
D03*
Y97500D02*
D03*
D15*
X124750Y81250D02*
D03*
Y98751D02*
D03*
D16*
X159750Y105000D02*
X191750D01*
X224000D01*
X173736Y75000D02*
X191750D01*
X224000D01*
X81000Y51250D02*
Y75001D01*
X290592Y89000D02*
Y101346D01*
X290342Y101596D02*
X290592Y101346D01*
X290342Y101596D02*
Y114251D01*
X290343Y63251D02*
Y75946D01*
X290592Y76195D01*
Y89000D01*
X321250Y128159D02*
X364500D01*
X378759Y113900D02*
X400000D01*
X364500Y139843D02*
X401557D01*
X427500Y113900D01*
X321250Y139843D02*
X326980Y134112D01*
X400304D01*
X413766Y120650D01*
X290342Y114251D02*
X307341D01*
X321250Y128159D01*
X221251Y50342D02*
X224251Y47343D01*
X224000Y53091D02*
Y75000D01*
X175500Y49500D02*
Y73236D01*
X173736Y75000D02*
X175500Y73236D01*
X101092Y35751D02*
X112500Y47159D01*
X81000Y35751D02*
X101092D01*
X121158Y135017D02*
X125984Y139843D01*
X321250D01*
X88170Y128238D02*
X107160Y109248D01*
X74962Y128238D02*
X88170D01*
X71628Y87630D02*
X93726D01*
X96012Y85344D01*
Y75331D02*
Y85344D01*
Y75331D02*
X112500Y58843D01*
X100171Y79406D02*
Y102365D01*
X97536Y105001D02*
X100171Y102365D01*
X81000Y105001D02*
X97536D01*
X83312Y119888D02*
X91440D01*
X103172Y108156D01*
Y86058D02*
Y108156D01*
Y86058D02*
X106729Y82501D01*
X210158Y89000D02*
X278908D01*
X208659Y87500D02*
X210158Y89000D01*
X294102Y45750D02*
X304500D01*
X113030Y103632D02*
Y118872D01*
X353748Y53594D02*
X364500Y42842D01*
X353748Y53594D02*
Y56060D01*
X224251Y35659D02*
X229659Y30250D01*
X304500D01*
X311343Y23408D01*
X370626D01*
X400000Y52782D01*
Y63100D01*
X269408Y105000D02*
X278658Y114251D01*
X224000Y105000D02*
X269408D01*
X73152Y51250D02*
X81000D01*
X95250Y58843D02*
X112500D01*
X364500Y31158D02*
X370332Y36990D01*
Y122327D01*
X125658Y34000D02*
X175500D01*
X298375Y39624D02*
X304500Y45750D01*
X283210Y39624D02*
X298375D01*
X112500Y47159D02*
X122851D01*
X304500Y45750D02*
X323842Y26408D01*
X369250D01*
X382778Y39935D01*
Y71279D01*
X400000Y88500D01*
X159750Y75000D02*
X173736D01*
X364500Y128159D02*
X370332Y122327D01*
X378759Y113900D01*
X64250Y95008D02*
X71628Y87630D01*
X64250Y95008D02*
Y117526D01*
X74962Y128238D01*
X172250Y52750D02*
X175500Y49500D01*
X157250Y49000D02*
X168500D01*
X64000Y31500D02*
Y42098D01*
X73152Y51250D01*
X168500Y49000D02*
X172250Y52750D01*
X221251Y50342D02*
X224000Y53091D01*
X270909Y71000D02*
X278659Y63251D01*
X254000Y71000D02*
X270909D01*
X133250Y59250D02*
Y67156D01*
X100171Y79406D02*
X112422Y67156D01*
X129750D01*
X133250D01*
X284750Y55102D02*
X294102Y45750D01*
X413766Y102234D02*
Y120650D01*
Y102234D02*
X427500Y88500D01*
X282746Y95504D02*
X284750Y93500D01*
Y55102D02*
Y93500D01*
X237251Y92501D02*
X240254Y95504D01*
X282746D01*
X112500Y47159D02*
X125658Y34000D01*
D17*
X138176Y105000D02*
X159750D01*
X133350Y100174D02*
X138176Y105000D01*
X133350Y97500D02*
X133500D01*
X116000D02*
X121158D01*
Y135017D01*
X109728Y87500D02*
X116000D01*
X107160Y90069D02*
X109728Y87500D01*
X107160Y90069D02*
Y109248D01*
X106729Y82501D02*
X116000D01*
X133500Y87500D02*
X208659D01*
X109728Y100330D02*
X113030Y103632D01*
X109728Y93517D02*
Y100330D01*
Y93517D02*
X110744Y92501D01*
X116000D01*
X133350Y97500D02*
Y100174D01*
X130302Y82501D02*
X133500D01*
X129750Y78188D02*
X130302Y78740D01*
X129750Y67156D02*
Y78188D01*
X130302Y78740D02*
Y82501D01*
X133500Y92501D02*
X237251D01*
D18*
X81000Y88001D02*
Y92001D01*
X79000Y90001D02*
X83000D01*
X159750Y88000D02*
Y92000D01*
X157750Y90000D02*
X161750D01*
X191750Y88000D02*
Y92000D01*
X189750Y90000D02*
X193750D01*
X224000Y88000D02*
Y92000D01*
X222000Y90000D02*
X226000D01*
X134750Y80001D02*
Y100001D01*
X114750Y80001D02*
X134750D01*
X114750D02*
Y100001D01*
X134750D01*
X122250Y90001D02*
X127250D01*
X124750Y87500D02*
Y92501D01*
D19*
X20250Y148000D02*
X445000D01*
X445250Y52250D02*
Y116250D01*
X445000Y20000D02*
X445250Y20250D01*
X20500Y19750D02*
X445000D01*
X20250Y20000D02*
X20500Y19750D01*
X20250Y20000D02*
Y148000D01*
X445250Y20250D02*
Y52250D01*
Y116250D02*
Y148250D01*
D20*
X139000Y75750D02*
Y104251D01*
X110500Y75750D02*
X139000D01*
X110500D02*
Y104251D01*
X139000D01*
D21*
X330000Y90000D02*
D03*
X40000D02*
D03*
D22*
X427500Y113900D02*
D03*
Y88500D02*
D03*
X400000Y113900D02*
D03*
Y88500D02*
D03*
D23*
X427500Y63100D02*
D03*
X400000D02*
D03*
D24*
X83312Y119888D02*
D03*
X113030Y118872D02*
D03*
X353748Y56060D02*
D03*
X95250Y58843D02*
D03*
X283210Y39624D02*
D03*
X122851Y47159D02*
D03*
X157250Y49000D02*
D03*
X64000Y31500D02*
D03*
X254000Y71000D02*
D03*
X133250Y59250D02*
D03*
M02*
