G04 Layer_Physical_Order=2*
G04 Layer_Color=16711680*
%FSLAX44Y44*%
%MOMM*%
G71*
G01*
G75*
%ADD16C,0.2000*%
%ADD18C,0.1000*%
%ADD19C,0.2540*%
%ADD20C,0.0500*%
%ADD21C,1.5240*%
%ADD22C,1.5000*%
%ADD23R,1.5000X1.5000*%
%ADD24C,1.2700*%
D16*
X427500Y63100D02*
X437134Y72734D01*
Y121920D01*
X428647Y130407D02*
X437134Y121920D01*
X93831Y130407D02*
X428647D01*
X83312Y119888D02*
X93831Y130407D01*
X417740Y104140D02*
X427500Y113900D01*
X127762Y104140D02*
X417740D01*
X113030Y118872D02*
X127762Y104140D01*
X353748Y56060D02*
X370586Y72898D01*
X417702D01*
X427500Y63100D01*
X95250Y58843D02*
Y117856D01*
X104801Y127407D01*
X386493D01*
X400000Y113900D01*
X64000Y31500D02*
X155750D01*
X157250Y33000D01*
Y49000D01*
Y49342D01*
X122851Y47159D02*
X138500D01*
X150591Y59250D01*
X263584D01*
X283210Y39624D01*
X134500Y71000D02*
X254000D01*
X133250Y69750D02*
X134500Y71000D01*
X133250Y59250D02*
Y69750D01*
D18*
X81000Y88001D02*
Y92001D01*
X79000Y90001D02*
X83000D01*
X159750Y88000D02*
Y92000D01*
X157750Y90000D02*
X161750D01*
X191750Y88000D02*
Y92000D01*
X189750Y90000D02*
X193750D01*
X224000Y88000D02*
Y92000D01*
X222000Y90000D02*
X226000D01*
X134750Y80001D02*
Y100001D01*
X114750Y80001D02*
X134750D01*
X114750D02*
Y100001D01*
X134750D01*
X122250Y90001D02*
X127250D01*
X124750Y87500D02*
Y92501D01*
D19*
X20250Y148000D02*
X445000D01*
X445250Y52250D02*
Y116250D01*
X445000Y20000D02*
X445250Y20250D01*
X20500Y19750D02*
X445000D01*
X20250Y20000D02*
X20500Y19750D01*
X20250Y20000D02*
Y148000D01*
X445250Y20250D02*
Y52250D01*
Y116250D02*
Y148250D01*
D20*
X139000Y75750D02*
Y104251D01*
X110500Y75750D02*
X139000D01*
X110500D02*
Y104251D01*
X139000D01*
D21*
X330000Y90000D02*
D03*
X40000D02*
D03*
D22*
X427500Y113900D02*
D03*
Y88500D02*
D03*
X400000Y113900D02*
D03*
Y88500D02*
D03*
D23*
X427500Y63100D02*
D03*
X400000D02*
D03*
D24*
X83312Y119888D02*
D03*
X113030Y118872D02*
D03*
X353748Y56060D02*
D03*
X95250Y58843D02*
D03*
X283210Y39624D02*
D03*
X122851Y47159D02*
D03*
X157250Y49000D02*
D03*
X64000Y31500D02*
D03*
X254000Y71000D02*
D03*
X133250Y59250D02*
D03*
M02*
