G04 Layer_Color=8421504*
%FSLAX44Y44*%
%MOMM*%
G71*
G01*
G75*
%ADD10R,0.5500X0.5500*%
%ADD11R,2.6000X1.5000*%
%ADD12R,0.8500X0.8500*%
%ADD13R,0.5500X0.5500*%
%ADD14R,0.9000X0.2500*%
%ADD15R,0.2500X0.9000*%
%ADD18C,0.1000*%
%ADD19C,0.2540*%
%ADD20C,0.0500*%
D10*
X303500Y130843D02*
D03*
Y119158D02*
D03*
X256500Y129592D02*
D03*
Y117908D02*
D03*
X278500Y90092D02*
D03*
Y78408D02*
D03*
X327249Y90593D02*
D03*
Y78909D02*
D03*
X367250Y93343D02*
D03*
Y81659D02*
D03*
X353250Y131593D02*
D03*
Y119909D02*
D03*
D11*
X81000Y77250D02*
D03*
Y107250D02*
D03*
X159750Y76000D02*
D03*
Y106000D02*
D03*
X191750Y76000D02*
D03*
Y106000D02*
D03*
X224000Y76000D02*
D03*
Y106000D02*
D03*
D12*
X85000Y36251D02*
D03*
Y51750D02*
D03*
X175500Y34000D02*
D03*
Y49500D02*
D03*
X358500Y50500D02*
D03*
Y35000D02*
D03*
D13*
X206657Y38250D02*
D03*
X218341D02*
D03*
X114408Y57500D02*
D03*
X126092D02*
D03*
D14*
X116000Y98250D02*
D03*
Y93251D02*
D03*
Y88250D02*
D03*
Y83251D02*
D03*
X133500D02*
D03*
Y88250D02*
D03*
Y93251D02*
D03*
Y98250D02*
D03*
D15*
X124750Y82000D02*
D03*
Y99500D02*
D03*
D18*
X81000Y90251D02*
Y94251D01*
X79000Y92251D02*
X83000D01*
X159750Y89000D02*
Y93000D01*
X157750Y91000D02*
X161750D01*
X191750Y89000D02*
Y93000D01*
X189750Y91000D02*
X193750D01*
X224000Y89000D02*
Y93000D01*
X222000Y91000D02*
X226000D01*
X134750Y80751D02*
Y100751D01*
X114750Y80751D02*
X134750D01*
X114750D02*
Y100751D01*
X134750D01*
X122250Y90751D02*
X127250D01*
X124750Y88250D02*
Y93251D01*
D19*
X20250Y148000D02*
X470250D01*
Y20000D02*
Y148000D01*
X470000Y19750D02*
X470250Y20000D01*
X20500Y19750D02*
X470000D01*
X20250Y20000D02*
X20500Y19750D01*
X20250Y20000D02*
Y148000D01*
D20*
X139000Y76500D02*
Y105001D01*
X110500Y76500D02*
X139000D01*
X110500D02*
Y105001D01*
X139000D01*
M02*
