G04 Layer_Color=65535*
%FSLAX44Y44*%
%MOMM*%
G71*
G01*
G75*
%ADD16C,0.2000*%
%ADD18C,0.1000*%
%ADD19C,0.2540*%
%ADD20C,0.0500*%
%ADD25C,0.2500*%
%ADD26C,0.1524*%
D16*
X440050Y50150D02*
X465450D01*
X440050D02*
Y126350D01*
X465450D01*
Y50150D02*
Y126350D01*
X412050Y50400D02*
X437450D01*
X412050D02*
Y126600D01*
X437450D01*
Y50400D02*
Y126600D01*
X64000Y99751D02*
Y116751D01*
X94000Y121751D02*
X98000Y116751D01*
X64000D02*
X68000Y121751D01*
X98000Y99751D02*
Y116751D01*
X68000Y121751D02*
X94000D01*
X64000Y65751D02*
X98000D01*
X64000D02*
Y84751D01*
X98000Y65751D02*
Y84751D01*
X142750Y98500D02*
Y115500D01*
X172750Y120500D02*
X176750Y115500D01*
X142750D02*
X146750Y120500D01*
X176750Y98500D02*
Y115500D01*
X146750Y120500D02*
X172750D01*
X142750Y64500D02*
X176750D01*
X142750D02*
Y83500D01*
X176750Y64500D02*
Y83500D01*
X174750Y98500D02*
Y115500D01*
X204749Y120500D02*
X208749Y115500D01*
X174750D02*
X178750Y120500D01*
X208749Y98500D02*
Y115500D01*
X178750Y120500D02*
X204749D01*
X174750Y64500D02*
X208749D01*
X174750D02*
Y83500D01*
X208749Y64500D02*
Y83500D01*
X207000Y98500D02*
Y115500D01*
X237000Y120500D02*
X241000Y115500D01*
X207000D02*
X211000Y120500D01*
X241000Y98500D02*
Y115500D01*
X211000Y120500D02*
X237000D01*
X207000Y64500D02*
X241000D01*
X207000D02*
Y83500D01*
X241000Y64500D02*
Y83500D01*
D18*
X81000Y90251D02*
Y94251D01*
X79000Y92251D02*
X83000D01*
X159750Y89000D02*
Y93000D01*
X157750Y91000D02*
X161750D01*
X191750Y89000D02*
Y93000D01*
X189750Y91000D02*
X193750D01*
X224000Y89000D02*
Y93000D01*
X222000Y91000D02*
X226000D01*
X134750Y80751D02*
Y100751D01*
X114750Y80751D02*
X134750D01*
X114750D02*
Y100751D01*
X134750D01*
X122250Y90751D02*
X127250D01*
X124750Y88250D02*
Y93251D01*
D19*
X297500Y116000D02*
Y134000D01*
X309499Y116000D02*
Y134000D01*
X250500Y114750D02*
Y132751D01*
X262500Y114750D02*
Y132751D01*
X272500Y75250D02*
Y93250D01*
X284500Y75250D02*
Y93250D01*
X321250Y75750D02*
Y93750D01*
X333250Y75750D02*
Y93750D01*
X361250Y78500D02*
Y96500D01*
X373250Y78500D02*
Y96500D01*
X203500Y32250D02*
X221500D01*
X203500Y44250D02*
X221500D01*
X120248Y54960D02*
Y60040D01*
X347249Y116751D02*
Y134751D01*
X359249Y116751D02*
Y134751D01*
X441250Y27500D02*
Y42735D01*
X448867D01*
X451407Y40196D01*
Y35117D01*
X448867Y32578D01*
X441250D01*
X466642Y27500D02*
X456485D01*
X466642Y37657D01*
Y40196D01*
X464103Y42735D01*
X459024D01*
X456485Y40196D01*
X413250Y28500D02*
Y43735D01*
X420868D01*
X423407Y41196D01*
Y36117D01*
X420868Y33578D01*
X413250D01*
X428485Y28500D02*
X433564D01*
X431025D01*
Y43735D01*
X428485Y41196D01*
X314750Y116500D02*
Y131735D01*
X322368D01*
X324907Y129196D01*
Y124117D01*
X322368Y121578D01*
X314750D01*
X319828D02*
X324907Y116500D01*
X340142D02*
X329985D01*
X340142Y126657D01*
Y129196D01*
X337603Y131735D01*
X332524D01*
X329985Y129196D01*
X266500Y116500D02*
Y131735D01*
X274118D01*
X276657Y129196D01*
Y124117D01*
X274118Y121578D01*
X266500D01*
X271578D02*
X276657Y116500D01*
X281735Y129196D02*
X284274Y131735D01*
X289353D01*
X291892Y129196D01*
Y126657D01*
X289353Y124117D01*
X286813D01*
X289353D01*
X291892Y121578D01*
Y119039D01*
X289353Y116500D01*
X284274D01*
X281735Y119039D01*
X68750Y139485D02*
Y124250D01*
X76368D01*
X78907Y126789D01*
Y136946D01*
X76368Y139485D01*
X68750D01*
X91603Y124250D02*
Y139485D01*
X83985Y131868D01*
X94142D01*
X151000Y139485D02*
Y124250D01*
X158617D01*
X161157Y126789D01*
Y136946D01*
X158617Y139485D01*
X151000D01*
X166235Y124250D02*
X171313D01*
X168774D01*
Y139485D01*
X166235Y136946D01*
X179000Y139985D02*
Y124750D01*
X186618D01*
X189157Y127289D01*
Y137446D01*
X186618Y139985D01*
X179000D01*
X204392Y124750D02*
X194235D01*
X204392Y134907D01*
Y137446D01*
X201853Y139985D01*
X196774D01*
X194235Y137446D01*
X212750Y139485D02*
Y124250D01*
X220368D01*
X222907Y126789D01*
Y136946D01*
X220368Y139485D01*
X212750D01*
X227985Y136946D02*
X230524Y139485D01*
X235603D01*
X238142Y136946D01*
Y134407D01*
X235603Y131868D01*
X233063D01*
X235603D01*
X238142Y129328D01*
Y126789D01*
X235603Y124250D01*
X230524D01*
X227985Y126789D01*
X113907Y42696D02*
X111367Y45235D01*
X106289D01*
X103750Y42696D01*
Y32539D01*
X106289Y30000D01*
X111367D01*
X113907Y32539D01*
X118985Y30000D02*
X124063D01*
X121524D01*
Y45235D01*
X118985Y42696D01*
X61907Y53446D02*
X59367Y55985D01*
X54289D01*
X51750Y53446D01*
Y43289D01*
X54289Y40750D01*
X59367D01*
X61907Y43289D01*
X77142Y40750D02*
X66985D01*
X77142Y50907D01*
Y53446D01*
X74602Y55985D01*
X69524D01*
X66985Y53446D01*
X152907Y49696D02*
X150367Y52235D01*
X145289D01*
X142750Y49696D01*
Y39539D01*
X145289Y37000D01*
X150367D01*
X152907Y39539D01*
X157985Y49696D02*
X160524Y52235D01*
X165603D01*
X168142Y49696D01*
Y47157D01*
X165603Y44618D01*
X163063D01*
X165603D01*
X168142Y42078D01*
Y39539D01*
X165603Y37000D01*
X160524D01*
X157985Y39539D01*
X333657Y52446D02*
X331118Y54985D01*
X326039D01*
X323500Y52446D01*
Y42289D01*
X326039Y39750D01*
X331118D01*
X333657Y42289D01*
X346353Y39750D02*
Y54985D01*
X338735Y47368D01*
X348892D01*
X364500Y117500D02*
Y132735D01*
X372118D01*
X374657Y130196D01*
Y125118D01*
X372118Y122578D01*
X364500D01*
X369578D02*
X374657Y117500D01*
X379735D02*
X384813D01*
X382274D01*
Y132735D01*
X379735Y130196D01*
X246250Y60000D02*
Y75235D01*
X253867D01*
X256407Y72696D01*
Y67618D01*
X253867Y65078D01*
X246250D01*
X251328D02*
X256407Y60000D01*
X269103D02*
Y75235D01*
X261485Y67618D01*
X271642D01*
X291250Y70750D02*
Y85985D01*
X298867D01*
X301407Y83446D01*
Y78368D01*
X298867Y75828D01*
X291250D01*
X296328D02*
X301407Y70750D01*
X316642Y85985D02*
X306485D01*
Y78368D01*
X311563Y80907D01*
X314103D01*
X316642Y78368D01*
Y73289D01*
X314103Y70750D01*
X309024D01*
X306485Y73289D01*
X331000Y75000D02*
Y90235D01*
X338618D01*
X341157Y87696D01*
Y82618D01*
X338618Y80078D01*
X331000D01*
X336078D02*
X341157Y75000D01*
X356392Y90235D02*
X351314Y87696D01*
X346235Y82618D01*
Y77539D01*
X348774Y75000D01*
X353853D01*
X356392Y77539D01*
Y80078D01*
X353853Y82618D01*
X346235D01*
X230250Y26250D02*
Y41485D01*
X237868D01*
X240407Y38946D01*
Y33867D01*
X237868Y31328D01*
X230250D01*
X235328D02*
X240407Y26250D01*
X245485Y41485D02*
X255642D01*
Y38946D01*
X245485Y28789D01*
Y26250D01*
X121750Y137735D02*
Y125039D01*
X124289Y122500D01*
X129368D01*
X131907Y125039D01*
Y137735D01*
X136985Y122500D02*
X142063D01*
X139524D01*
Y137735D01*
X136985Y135196D01*
X20250Y148000D02*
X470250D01*
Y20000D02*
Y148000D01*
X470000Y19750D02*
X470250Y20000D01*
X20500Y19750D02*
X470000D01*
X20250Y20000D02*
X20500Y19750D01*
X20250Y20000D02*
Y148000D01*
D20*
X139000Y76500D02*
Y105001D01*
X110500Y76500D02*
X139000D01*
X110500D02*
Y105001D01*
X139000D01*
D25*
X107255Y98250D02*
G03*
X107255Y98250I-625J0D01*
G01*
D26*
X80999Y44002D02*
X88999D01*
X171500Y41751D02*
X179499D01*
X354501Y42749D02*
X362500D01*
M02*
