M48
;Layer_Color=9474304
;FILE_FORMAT=4:4
METRIC,LZ
;TYPE=PLATED
T1F00S00C0.7112
T2F00S00C0.9000
T3F00S00C2.4000
%
T01
X000675Y000305
X0010922Y00038354
X00124206Y00042672
X00146908Y000575
X001385Y001145
X00121Y0011475
X0011Y0012525
X00250312Y0009775
X00276176Y00100778
X0026425Y000445
X0034925Y0007075
X0034375Y001
T02
X0042475Y000631
Y000885
Y001139
X0045275Y0011365
Y0008825
Y0006285
T03
X0004Y0009
X00395
M30
