G04 Layer_Color=16711935*
%FSLAX44Y44*%
%MOMM*%
G71*
G01*
G75*
%ADD18C,0.1000*%
%ADD19C,0.2540*%
%ADD20C,0.0500*%
%ADD33C,1.7272*%
%ADD34C,1.7032*%
%ADD35R,1.7032X1.7032*%
%ADD36C,1.4732*%
D18*
X81000Y90251D02*
Y94251D01*
X79000Y92251D02*
X83000D01*
X159750Y89000D02*
Y93000D01*
X157750Y91000D02*
X161750D01*
X191750Y89000D02*
Y93000D01*
X189750Y91000D02*
X193750D01*
X224000Y89000D02*
Y93000D01*
X222000Y91000D02*
X226000D01*
X134750Y80751D02*
Y100751D01*
X114750Y80751D02*
X134750D01*
X114750D02*
Y100751D01*
X134750D01*
X122250Y90751D02*
X127250D01*
X124750Y88250D02*
Y93251D01*
D19*
X20250Y148000D02*
X470250D01*
Y20000D02*
Y148000D01*
X470000Y19750D02*
X470250Y20000D01*
X20500Y19750D02*
X470000D01*
X20250Y20000D02*
X20500Y19750D01*
X20250Y20000D02*
Y148000D01*
D20*
X139000Y76500D02*
Y105001D01*
X110500Y76500D02*
X139000D01*
X110500D02*
Y105001D01*
X139000D01*
D33*
X395000Y90000D02*
D03*
X40000D02*
D03*
D34*
X452750Y113650D02*
D03*
Y88250D02*
D03*
X424750Y113900D02*
D03*
Y88500D02*
D03*
D35*
X452750Y62850D02*
D03*
X424750Y63100D02*
D03*
D36*
X67500Y30500D02*
D03*
X264250Y44500D02*
D03*
X121000Y114750D02*
D03*
X110000Y125250D02*
D03*
X138500Y114500D02*
D03*
X349250Y70750D02*
D03*
X250312Y97750D02*
D03*
X343750Y100000D02*
D03*
X276176Y100778D02*
D03*
X146908Y57500D02*
D03*
X124206Y42672D02*
D03*
X109220Y38354D02*
D03*
M02*
