G04 Layer_Color=2752767*
%FSLAX44Y44*%
%MOMM*%
G71*
G01*
G75*
%ADD18C,0.1000*%
%ADD19C,0.2540*%
%ADD20C,0.0500*%
%ADD37C,0.0508*%
%ADD38C,0.0677*%
D18*
X81000Y90251D02*
Y94251D01*
X79000Y92251D02*
X83000D01*
X159750Y89000D02*
Y93000D01*
X157750Y91000D02*
X161750D01*
X191750Y89000D02*
Y93000D01*
X189750Y91000D02*
X193750D01*
X224000Y89000D02*
Y93000D01*
X222000Y91000D02*
X226000D01*
X134750Y80751D02*
Y100751D01*
X114750Y80751D02*
X134750D01*
X114750D02*
Y100751D01*
X134750D01*
X122250Y90751D02*
X127250D01*
X124750Y88250D02*
Y93251D01*
D19*
X20250Y148000D02*
X470250D01*
Y20000D02*
Y148000D01*
X470000Y19750D02*
X470250Y20000D01*
X20500Y19750D02*
X470000D01*
X20250Y20000D02*
X20500Y19750D01*
X20250Y20000D02*
Y148000D01*
D20*
X139000Y76500D02*
Y105001D01*
X110500Y76500D02*
X139000D01*
X110500D02*
Y105001D01*
X139000D01*
D37*
X392968Y87968D02*
Y92032D01*
X397032D01*
Y87968D01*
X392968D01*
X37968D02*
Y92032D01*
X42032D01*
Y87968D01*
X37968D01*
X67500Y28468D02*
X65468Y32532D01*
X69532D01*
X67500Y28468D01*
X264250Y42468D02*
X262218Y46532D01*
X266282D01*
X264250Y42468D01*
X121000Y112718D02*
X118968Y116782D01*
X123032D01*
X121000Y112718D01*
X110000Y123218D02*
X107968Y127282D01*
X112032D01*
X110000Y123218D01*
X138500Y112468D02*
X136468Y116532D01*
X140532D01*
X138500Y112468D01*
X349250Y68718D02*
X347218Y72782D01*
X351282D01*
X349250Y68718D01*
X250312Y95718D02*
X248280Y99782D01*
X252344D01*
X250312Y95718D01*
X343750Y97968D02*
X341718Y102032D01*
X345782D01*
X343750Y97968D01*
X276176Y98745D02*
X274144Y102809D01*
X278208D01*
X276176Y98745D01*
X146908Y55468D02*
X144876Y59532D01*
X148940D01*
X146908Y55468D01*
X124206Y40640D02*
X122174Y44704D01*
X126238D01*
X124206Y40640D01*
X109220Y36322D02*
X107188Y40386D01*
X111252D01*
X109220Y36322D01*
D38*
X454782Y113650D02*
G03*
X454782Y113650I-2032J0D01*
G01*
Y88250D02*
G03*
X454782Y88250I-2032J0D01*
G01*
Y62850D02*
G03*
X454782Y62850I-2032J0D01*
G01*
X426782Y113900D02*
G03*
X426782Y113900I-2032J0D01*
G01*
Y88500D02*
G03*
X426782Y88500I-2032J0D01*
G01*
Y63100D02*
G03*
X426782Y63100I-2032J0D01*
G01*
M02*
